
  <svg width="329.25" height="104.25" viewBox="0 0 1756 556" fill="none" xmlns="http://www.w3.org/2000/svg" xmlns:xlink="http://www.w3.org/1999/xlink" version="1.1">
    
        <g transform="translate(0, 0)">
          <svg xmlns="http://www.w3.org/2000/svg" width="256" height="256" fill="none" viewBox="0 0 256 256"><rect width="256" height="256" fill="#007ACC" rx="60"/><path fill="#fff" d="M56.6112 128.849L56.5299 139.333H73.1902H89.8505L89.8505 186.673V234.012H101.635H113.419V186.673L113.419 139.333H130.079H146.739V129.052C146.739 123.363 146.618 118.609 146.455 118.487C146.333 118.325 126.056 118.243 101.472 118.284L56.7331 118.406L56.6112 128.849Z"/><path fill="#fff" d="M206.567 118.108C213.068 119.734 218.026 122.619 222.577 127.332C224.934 129.852 228.428 134.444 228.713 135.541C228.794 135.866 217.66 143.343 210.915 147.528C210.671 147.691 209.695 146.634 208.598 145.009C205.307 140.214 201.853 138.141 196.57 137.776C188.809 137.247 183.811 141.311 183.852 148.097C183.852 150.088 184.136 151.266 184.949 152.892C186.655 156.427 189.825 158.54 199.781 162.847C218.107 170.731 225.949 175.932 230.826 183.327C236.271 191.576 237.49 204.742 233.792 214.535C229.729 225.181 219.651 232.414 205.469 234.812C201.081 235.584 190.678 235.462 185.965 234.609C175.684 232.78 165.932 227.701 159.918 221.037C157.561 218.436 152.969 211.65 153.254 211.162C153.375 211 154.432 210.35 155.61 209.659C156.748 209.009 161.056 206.53 165.119 204.173L172.474 199.906L174.018 202.182C176.172 205.473 180.885 209.984 183.73 211.487C191.897 215.795 203.113 215.185 208.639 210.228C210.996 208.074 211.971 205.839 211.971 202.548C211.971 199.581 211.605 198.281 210.061 196.046C208.07 193.202 204.007 190.804 192.466 185.806C179.26 180.117 173.571 176.582 168.37 170.974C165.363 167.724 162.518 162.522 161.34 158.174C160.365 154.558 160.121 145.496 160.893 141.839C163.615 129.08 173.246 120.181 187.143 117.539C191.654 116.686 202.137 117.011 206.567 118.108Z"/></svg>
        </g>
         
        <g transform="translate(300, 0)">
          <svg xmlns="http://www.w3.org/2000/svg" width="256" height="256" fill="none" viewBox="0 0 256 256"><rect width="256" height="256" fill="#242938" rx="60"/><path fill="#00D8FF" d="M128.001 146.951C138.305 146.951 146.657 138.598 146.657 128.295C146.657 117.992 138.305 109.639 128.001 109.639C117.698 109.639 109.345 117.992 109.345 128.295C109.345 138.598 117.698 146.951 128.001 146.951Z"/><path fill-rule="evenodd" stroke="#00D8FF" stroke-width="8.911" d="M128.002 90.3633C153.05 90.3633 176.319 93.9575 193.864 99.9976C215.003 107.275 228 118.306 228 128.295C228 138.704 214.226 150.423 191.525 157.944C174.363 163.63 151.779 166.598 128.002 166.598C103.624 166.598 80.5389 163.812 63.1834 157.881C41.2255 150.376 28 138.506 28 128.295C28 118.387 40.4096 107.441 61.2515 100.175C78.8617 94.0353 102.705 90.3633 127.998 90.3633H128.002Z" clip-rule="evenodd"/><path fill-rule="evenodd" stroke="#00D8FF" stroke-width="8.911" d="M94.9811 109.438C107.495 87.7402 122.232 69.3783 136.23 57.1971C153.094 42.5206 169.144 36.7728 177.796 41.7623C186.813 46.9623 190.084 64.7496 185.259 88.1712C181.614 105.879 172.9 126.925 161.021 147.523C148.842 168.641 134.897 187.247 121.09 199.315C103.619 214.587 86.7284 220.114 77.8833 215.013C69.3003 210.067 66.0181 193.846 70.1356 172.161C73.6145 153.838 82.3451 131.349 94.977 109.438L94.9811 109.438Z" clip-rule="evenodd"/><path fill-rule="evenodd" stroke="#00D8FF" stroke-width="8.911" d="M95.0123 147.578C82.4633 125.904 73.9194 103.962 70.3531 85.7517C66.0602 63.8109 69.0954 47.0355 77.7401 42.0315C86.7485 36.8163 103.792 42.866 121.674 58.7437C135.194 70.7479 149.077 88.8052 160.99 109.383C173.204 130.481 182.358 151.856 185.919 169.844C190.425 192.608 186.778 210.001 177.941 215.116C169.367 220.08 153.676 214.825 136.945 200.427C122.809 188.263 107.685 169.468 95.0123 147.578Z" clip-rule="evenodd"/></svg>
        </g>
         
        <g transform="translate(600, 0)">
          <svg xmlns="http://www.w3.org/2000/svg" width="256" height="256" fill="none" viewBox="0 0 256 256"><rect width="256" height="256" fill="#242938" rx="60"/><path fill="url(#paint0_linear_2_47)" d="M127.279 29C76.5066 29 79.6772 51.018 79.6772 51.018L79.7338 73.8284H128.185V80.6772H60.4893C60.4893 80.6772 28 76.9926 28 128.222C28 179.452 56.3573 177.636 56.3573 177.636H73.2812V153.863C73.2812 153.863 72.369 125.506 101.186 125.506H149.24C149.24 125.506 176.239 125.942 176.239 99.4123V55.5461C176.239 55.5461 180.338 29 127.279 29ZM100.563 44.339C105.384 44.339 109.28 48.2351 109.28 53.0556C109.28 57.8761 105.384 61.7723 100.563 61.7723C95.7426 61.7723 91.8465 57.8761 91.8465 53.0556C91.8465 48.2351 95.7426 44.339 100.563 44.339Z"/><path fill="url(#paint1_linear_2_47)" d="M128.721 227.958C179.493 227.958 176.323 205.941 176.323 205.941L176.266 183.13H127.815V176.281H195.511C195.511 176.281 228 179.966 228 128.736C228 77.5062 199.643 79.323 199.643 79.323H182.719V103.096C182.719 103.096 183.631 131.453 154.814 131.453H106.76C106.76 131.453 79.7607 131.016 79.7607 157.546V201.412C79.7607 201.412 75.6615 227.958 128.721 227.958ZM155.437 212.619C150.616 212.619 146.72 208.723 146.72 203.903C146.72 199.082 150.616 195.186 155.437 195.186C160.257 195.186 164.154 199.082 164.154 203.903C164.154 208.723 160.257 212.619 155.437 212.619Z"/><defs><linearGradient id="paint0_linear_2_47" x1="47.22" x2="146.333" y1="46.896" y2="145.02" gradientUnits="userSpaceOnUse"><stop stop-color="#387EB8"/><stop offset="1" stop-color="#366994"/></linearGradient><linearGradient id="paint1_linear_2_47" x1="108.056" x2="214.492" y1="109.905" y2="210.522" gradientUnits="userSpaceOnUse"><stop stop-color="#FFE052"/><stop offset="1" stop-color="#FFC331"/></linearGradient></defs></svg>
        </g>
         
        <g transform="translate(900, 0)">
          <svg xmlns="http://www.w3.org/2000/svg" width="256" height="256" fill="none" viewBox="0 0 256 256"><rect width="256" height="256" fill="#E43717" rx="60"/><path fill="#fff" d="M226.574 125.551L218.184 120.353C218.113 119.535 218.033 118.719 217.945 117.907L225.169 111.18C225.903 110.496 226.232 109.483 226.033 108.504C225.84 107.52 225.15 106.71 224.212 106.364L214.98 102.924C214.749 102.125 214.506 101.332 214.258 100.535L220.011 92.5468C220.598 91.7345 220.718 90.6777 220.336 89.7566C219.953 88.8335 219.118 88.1723 218.138 88.0098L208.409 86.4275C208.031 85.6898 207.637 84.9636 207.239 84.2488L211.33 75.2668C211.748 74.3533 211.662 73.2983 211.104 72.4575C210.548 71.6242 209.606 71.1369 208.6 71.1751L198.719 71.5191C198.209 70.8808 197.689 70.2483 197.159 69.6272L199.434 60.0144C199.663 59.0379 199.375 58.0078 198.664 57.3007C197.958 56.5936 196.934 56.3012 195.949 56.5305L186.336 58.8047C185.713 58.2772 185.08 57.7555 184.44 57.2453L184.786 47.365C184.824 46.3655 184.336 45.4157 183.503 44.8615C182.668 44.3034 181.611 44.2193 180.693 44.634L171.729 48.7238C171.005 48.3263 170.279 47.9326 169.551 47.5523L167.964 37.8249C167.804 36.8387 167.142 36.0017 166.217 35.6271C165.294 35.243 164.23 35.3672 163.427 35.952L155.438 41.7044C154.65 41.454 153.859 41.2132 153.068 40.9839L149.627 31.7534C149.277 30.8131 148.467 30.1232 147.487 29.9283C146.504 29.7353 145.499 30.0621 144.811 30.7921L138.083 38.016C137.271 37.9262 136.453 37.844 135.637 37.7771L130.438 29.3683C129.912 28.5179 128.981 28 127.972 28C126.963 28 126.042 28.5179 125.526 29.3683L120.327 37.7771C119.509 37.844 118.691 37.9262 117.881 38.016L111.153 30.7921C110.471 30.0621 109.458 29.7353 108.477 29.9283C107.493 30.1251 106.682 30.8131 106.336 31.7534L102.896 40.9839C102.097 41.2132 101.306 41.4559 100.526 41.7044L92.5368 35.952C91.7245 35.3653 90.6657 35.2411 89.7463 35.6271C88.8232 36.0093 88.16 36.8464 87.9994 37.8249L86.413 47.5523C85.6791 47.9326 84.9528 48.3243 84.2342 48.7238L75.2702 44.634C74.3585 44.2174 73.3016 44.3034 72.4606 44.8615C71.6273 45.4157 71.1399 46.3655 71.1781 47.365L71.5221 57.2453C70.8838 57.7555 70.2511 58.2772 69.6261 58.8047L60.0123 56.5305C59.0356 56.3031 58.0054 56.5936 57.2983 57.3007C56.5873 58.0097 56.2987 59.0321 56.528 60.0144L58.7833 69.6272C58.2577 70.2502 57.7379 70.8808 57.2275 71.5191L47.3461 71.1751C46.3504 71.1465 45.3966 71.6242 44.8423 72.4575C44.2842 73.2869 44.2002 74.3494 44.6149 75.2668L48.7051 84.2488C48.3075 84.9693 47.9138 85.6955 47.5335 86.4275L37.805 88.0098C36.8168 88.1704 35.9835 88.8316 35.607 89.7566C35.2247 90.6835 35.3489 91.7441 35.9319 92.5468L41.6849 100.535C41.4345 101.324 41.1918 102.117 40.9624 102.924L31.7309 106.364C30.7943 106.714 30.1043 107.524 29.9094 108.504C29.7144 109.487 30.0413 110.492 30.7733 111.18L37.998 117.907C37.9082 118.719 37.8279 119.537 37.7591 120.353L29.3685 125.551C28.518 126.077 28 127.005 28 128.016C28 129.027 28.518 129.947 29.3685 130.463L37.7591 135.661C37.8279 136.479 37.9082 137.295 37.998 138.107L30.7733 144.834C30.0413 145.516 29.7144 146.529 29.9094 147.509C30.1043 148.494 30.7943 149.302 31.7309 149.65L40.9624 153.09C41.1918 153.889 41.4345 154.682 41.6849 155.479L35.9319 163.467C35.347 164.281 35.2228 165.338 35.607 166.257C35.9911 167.184 36.8264 167.845 37.8241 168.004L47.5526 169.586C47.9329 170.324 48.3228 171.05 48.7242 171.765L44.634 180.728C44.2174 181.639 44.3034 182.696 44.8615 183.537C45.4196 184.372 46.3695 184.86 47.3653 184.819L57.2275 184.474C57.7417 185.116 58.2597 185.744 58.7872 186.369L56.5318 195.982C56.3025 196.957 56.5911 197.97 57.3021 198.677C58.0074 199.39 59.0337 199.674 60.0161 199.445L69.63 197.19C70.2549 197.721 70.8876 198.237 71.526 198.746L71.1819 208.626C71.1437 209.625 71.6311 210.575 72.4644 211.129C73.2939 211.685 74.3566 211.77 75.274 211.353L84.238 207.263C84.9605 207.665 85.6868 208.054 86.4169 208.435L88.0032 218.162C88.1638 219.152 88.8251 219.989 89.7502 220.379C90.6733 220.763 91.7379 220.639 92.5407 220.056L100.53 214.304C101.319 214.554 102.112 214.799 102.919 215.028L106.359 224.258C106.709 225.195 107.519 225.889 108.5 226.08C109.482 226.278 110.488 225.95 111.176 225.216L117.904 217.992C118.716 218.086 119.534 218.164 120.35 218.237L125.549 226.626C126.072 227.473 127.003 227.995 127.995 227.995C128.987 227.995 129.926 227.475 130.461 226.626L135.66 218.237C136.478 218.164 137.294 218.086 138.106 217.992L144.834 225.216C145.516 225.95 146.529 226.278 147.51 226.08C148.494 225.887 149.304 225.195 149.65 224.258L153.091 215.028C153.889 214.799 154.683 214.554 155.48 214.304L163.469 220.056C164.281 220.639 165.34 220.763 166.259 220.379C167.184 219.999 167.846 219.16 168.006 218.162L169.593 208.435C170.327 208.054 171.053 207.659 171.772 207.263L180.736 211.353C181.647 211.77 182.704 211.685 183.545 211.129C184.378 210.571 184.864 209.625 184.828 208.626L184.484 198.746C185.122 198.235 185.755 197.721 186.378 197.19L195.991 199.445C196.968 199.674 197.998 199.39 198.706 198.677C199.417 197.968 199.705 196.949 199.476 195.982L197.22 186.369C197.748 185.744 198.268 185.116 198.776 184.474L208.658 184.819C209.653 184.86 210.607 184.372 211.161 183.537C211.72 182.704 211.806 181.643 211.387 180.728L207.297 171.765C207.696 171.041 208.088 170.314 208.467 169.586L218.195 168.004C219.185 167.845 220.018 167.184 220.393 166.257C220.775 165.334 220.655 164.27 220.068 163.467L214.315 155.479C214.564 154.689 214.806 153.896 215.038 153.09L224.269 149.65C225.208 149.298 225.899 148.49 226.091 147.509C226.289 146.527 225.961 145.522 225.227 144.834L218.002 138.107C218.09 137.295 218.17 136.477 218.241 135.661L226.632 130.463C227.482 129.939 228 129.008 228 128.016C228 127.025 227.484 126.086 226.633 125.551H226.574ZM170.382 195.306C167.171 194.614 165.145 191.445 165.833 188.235C166.519 185.024 169.675 182.979 172.886 183.667C176.097 184.353 178.142 187.527 177.454 190.738C176.766 193.949 173.612 195.994 170.401 195.306H170.382ZM167.534 176.004C164.61 175.377 161.724 177.238 161.112 180.17L158.131 194.082C148.937 198.249 138.635 200.58 127.932 200.58C116.923 200.58 106.526 198.153 97.1603 193.796L94.1786 179.883C93.5517 176.959 90.681 175.086 87.7567 175.717L75.467 178.354C73.1926 176.004 71.0711 173.5 69.1215 170.863H128.945C129.622 170.863 130.073 170.741 130.073 170.125V148.912C130.073 148.297 129.622 148.175 128.945 148.175H111.457V134.778H130.359C132.085 134.778 139.591 135.271 141.98 144.868C142.731 147.811 144.388 157.405 145.516 160.482C146.64 163.922 151.212 170.802 156.086 170.802H185.902C186.24 170.802 186.601 170.763 186.982 170.695C184.917 173.504 182.643 176.16 180.216 178.645L167.639 175.95L167.534 176.004ZM84.7751 195.019C81.5641 195.711 78.4104 193.666 77.7224 190.451C77.0362 187.241 79.0756 184.068 82.2904 183.38C85.5014 182.694 88.655 184.739 89.3431 187.948C90.0292 191.159 87.988 194.331 84.7751 195.019ZM62.0306 103.096C63.3609 106.096 62.0077 109.613 59.0108 110.95C56.0101 112.282 52.5124 110.928 51.1745 107.931C49.8366 104.934 51.1974 101.414 54.1943 100.076C57.1951 98.7463 60.6927 100.099 62.0306 103.096ZM55.0544 119.608L67.8601 113.913C70.5932 112.699 71.8356 109.498 70.6124 106.765L67.9748 100.803H78.334V147.433H57.5009C55.687 141.05 54.7104 134.323 54.7104 127.367C54.7104 124.71 54.8537 122.092 55.1289 119.512L55.0544 119.608ZM111.247 115.078V101.319H135.902C137.177 101.319 144.904 102.792 144.904 108.562C144.904 113.358 138.979 115.078 134.106 115.078H111.17H111.247ZM200.886 127.462C200.886 129.289 200.819 131.093 200.686 132.89H193.174C192.423 132.89 192.121 133.383 192.121 134.118V137.558C192.121 145.661 187.553 147.439 183.539 147.878C179.717 148.308 175.493 146.281 174.977 143.941C172.721 131.271 168.975 128.576 163.05 123.875C170.409 119.212 178.054 112.313 178.054 103.044C178.054 93.0876 171.231 86.8192 166.586 83.7424C160.05 79.4425 152.825 78.5825 150.875 78.5825H73.2767C83.8079 66.8485 98.1236 58.5161 114.178 55.4584L123.334 65.052C125.398 67.2116 128.819 67.3071 130.998 65.2279L141.242 55.4431C162.649 59.4373 180.806 72.7766 191.318 91.1803L184.304 107.004C183.094 109.737 184.329 112.948 187.056 114.152L200.55 120.152C200.783 122.541 200.905 124.968 200.905 127.414L200.886 127.462ZM123.288 47.3879C125.658 45.1137 129.423 45.2093 131.678 47.5809C133.934 49.9507 133.857 53.7155 131.481 55.9897C129.111 58.2639 125.346 58.1683 123.091 55.7948C120.836 53.425 120.912 49.6602 123.288 47.386V47.3879ZM192.859 103.383C194.187 100.382 197.694 99.0253 200.695 100.363C203.696 101.693 205.053 105.217 203.715 108.218C202.387 111.218 198.879 112.575 195.879 111.237C192.878 109.907 191.521 106.383 192.859 103.383Z"/></svg>
        </g>
         
        <g transform="translate(1200, 0)">
          <svg width="256" height="256" viewBox="0 0 256 256" fill="none" xmlns="http://www.w3.org/2000/svg">
<rect width="256" height="256" rx="60" fill="url(#paint0_linear_206_664)"/>
<path fill-rule="evenodd" clip-rule="evenodd" d="M157.719 33.0112C159.353 35.039 160.185 37.7762 161.851 43.2479L198.247 162.809C184.576 155.715 169.903 150.747 154.734 148.077L131.037 67.9971C130.848 67.3583 130.457 66.7977 129.923 66.3993C129.389 66.0009 128.741 65.7861 128.075 65.787C127.408 65.788 126.76 66.0046 126.228 66.4045C125.695 66.8044 125.306 67.3661 125.119 68.0055L101.708 148.037C86.4709 150.694 71.7306 155.67 58 162.791L94.5734 43.221C96.2458 37.7568 97.0803 35.0256 98.714 33.002C100.156 31.2146 102.032 29.8264 104.163 28.9698C106.577 28 109.433 28 115.147 28H141.27C146.991 28 149.851 28 152.267 28.9723C154.4 29.8306 156.277 31.2212 157.719 33.0112Z" fill="#31274A"/>
<path fill-rule="evenodd" clip-rule="evenodd" d="M162.074 168.499C156.074 173.63 144.098 177.128 130.304 177.128C113.373 177.128 99.1821 171.857 95.4172 164.769C94.0709 168.832 93.7692 173.481 93.7692 176.452C93.7692 176.452 92.8817 191.037 103.026 201.181C103.026 195.913 107.296 191.643 112.564 191.643C121.592 191.643 121.582 199.52 121.573 205.911V206.481C121.573 216.181 127.501 224.496 135.932 228C134.634 225.329 133.962 222.398 133.966 219.428C133.966 210.177 139.398 206.732 145.71 202.73C150.732 199.545 156.312 196.006 160.158 188.906C162.229 185.082 163.31 180.801 163.303 176.452C163.303 173.679 162.872 171.007 162.074 168.499Z" fill="#FF5D01"/>
<path fill-rule="evenodd" clip-rule="evenodd" d="M162.074 168.499C156.074 173.63 144.098 177.128 130.304 177.128C113.373 177.128 99.1821 171.857 95.4172 164.769C94.0709 168.832 93.7692 173.481 93.7692 176.452C93.7692 176.452 92.8817 191.037 103.026 201.181C103.026 195.913 107.296 191.643 112.564 191.643C121.592 191.643 121.582 199.52 121.573 205.911V206.481C121.573 216.181 127.501 224.496 135.932 228C134.634 225.329 133.962 222.398 133.966 219.428C133.966 210.177 139.398 206.732 145.71 202.73C150.732 199.545 156.312 196.006 160.158 188.906C162.229 185.082 163.31 180.801 163.303 176.452C163.303 173.679 162.872 171.007 162.074 168.499Z" fill="url(#paint1_linear_206_664)"/>
<defs>
<linearGradient id="paint0_linear_206_664" x1="128" y1="0" x2="128" y2="256" gradientUnits="userSpaceOnUse">
<stop offset="0.192708" stop-color="#FCB3B2"/>
<stop offset="1" stop-color="#C587EE"/>
</linearGradient>
<linearGradient id="paint1_linear_206_664" x1="189.089" y1="126.765" x2="153.565" y2="201.132" gradientUnits="userSpaceOnUse">
<stop stop-color="#FF1639"/>
<stop offset="1" stop-color="#FF1639" stop-opacity="0"/>
</linearGradient>
</defs>
</svg>

        </g>
         
        <g transform="translate(1500, 0)">
          <svg xmlns="http://www.w3.org/2000/svg" width="256" height="256" fill="none" viewBox="0 0 256 256"><rect width="256" height="256" fill="#242938" rx="60"/><path fill="#81CD39" d="M119.878 31.1164C124.797 28.3008 131.203 28.2883 136.117 31.1164C160.839 45.0855 185.569 59.0332 210.287 73.0108C214.937 75.6296 218.046 80.8038 217.999 86.1608V170.206C218.034 175.785 214.617 181.083 209.712 183.642C185.071 197.535 160.442 211.444 135.805 225.337C130.786 228.207 124.251 227.986 119.387 224.88C112 220.598 104.6 216.336 97.2121 212.058C95.7022 211.158 94.0004 210.442 92.9345 208.978C93.8766 207.708 95.5618 207.55 96.9309 206.995C100.014 206.014 102.847 204.44 105.679 202.913C106.396 202.423 107.27 202.611 107.957 203.049C114.274 206.671 120.536 210.399 126.874 213.986C128.226 214.767 129.595 213.73 130.751 213.086C154.931 199.419 179.141 185.805 203.318 172.134C204.214 171.703 204.709 170.752 204.636 169.771C204.653 142.046 204.64 114.317 204.645 86.5918C204.747 85.4785 204.103 84.455 203.096 83.999C178.541 70.1702 153.997 56.3205 129.446 42.4882C128.575 41.8893 127.426 41.8878 126.554 42.4837C102.002 56.3205 77.4638 70.1832 52.9124 84.011C51.9092 84.4675 51.236 85.4745 51.3554 86.5918C51.3596 114.317 51.3554 142.046 51.3554 169.775C51.2682 170.756 51.801 171.687 52.6906 172.109C59.2422 175.824 65.8024 179.513 72.3582 183.216C76.0516 185.203 80.5863 186.385 84.6555 184.862C88.2463 183.574 90.7633 179.909 90.6948 176.097C90.7288 148.534 90.6778 120.967 90.7203 93.4078C90.6309 92.1841 91.7912 91.1731 92.981 91.2885C96.1292 91.267 99.281 91.2461 102.429 91.297C103.743 91.267 104.647 92.5847 104.485 93.8174C104.472 121.555 104.519 149.293 104.464 177.03C104.472 184.423 101.435 192.467 94.5973 196.084C86.1737 200.447 75.7619 199.522 67.4399 195.338C60.2355 191.742 53.3603 187.498 46.2838 183.646C41.3661 181.101 37.966 175.782 38.0006 170.207V86.1608C37.949 80.6929 41.1825 75.4248 45.9764 72.8445C70.6133 58.9408 95.2461 45.0261 119.878 31.1164Z"/><path fill="#81CD39" d="M141.372 89.3351C152.117 88.6433 163.62 88.9255 173.289 94.2185C180.776 98.2754 184.926 106.789 185.058 115.106C184.849 116.227 183.676 116.846 182.605 116.769C179.488 116.765 176.369 116.812 173.252 116.748C171.929 116.799 171.161 115.58 170.995 114.411C170.099 110.431 167.928 106.49 164.183 104.57C158.433 101.692 151.767 101.837 145.497 101.897C140.92 102.139 135.998 102.536 132.12 105.227C129.143 107.266 128.239 111.382 129.301 114.697C130.303 117.077 133.05 117.845 135.299 118.553C148.248 121.94 161.97 121.602 174.672 126.059C179.931 127.876 185.075 131.409 186.875 136.915C189.23 144.295 188.198 153.115 182.947 159.039C178.689 163.914 172.488 166.568 166.303 168.009C158.075 169.844 149.536 169.891 141.18 169.076C133.323 168.18 125.146 166.116 119.081 160.763C113.894 156.259 111.361 149.241 111.612 142.469C111.672 141.325 112.811 140.527 113.907 140.621C117.046 140.596 120.186 140.587 123.325 140.626C124.58 140.536 125.509 141.62 125.574 142.802C126.152 146.593 127.577 150.573 130.884 152.82C137.264 156.937 145.271 156.655 152.577 156.77C158.63 156.502 165.425 156.421 170.364 152.42C172.97 150.138 173.742 146.32 173.038 143.036C172.275 140.263 169.374 138.971 166.883 138.126C154.1 134.083 140.224 135.55 127.565 130.977C122.425 129.161 117.455 125.727 115.481 120.447C112.726 112.974 113.988 103.73 119.789 98.0061C125.445 92.312 133.609 90.1192 141.372 89.3346V89.3351"/></svg>
        </g>
         
        <g transform="translate(0, 300)">
          <svg xmlns="http://www.w3.org/2000/svg" width="256" height="256" fill="none" viewBox="0 0 256 256"><rect width="256" height="256" fill="#2396ED" rx="60"/><path fill="#fff" d="M141.187 122.123H161.904V103.379H141.187V122.123ZM116.525 122.123H137.241V103.379H116.525V122.123ZM92.3554 122.123H113.072V103.379H92.3554V122.123ZM68.1859 122.123H88.4093V103.379H68.1859V122.123ZM43.5233 122.123H64.2399V103.379H43.5233V122.123ZM68.1859 99.4333H88.4093V80.6896H68.1859V99.4333ZM92.3554 99.4333H113.072V80.6896H92.3554V99.4333ZM116.525 99.4333H137.241V80.6896H116.525V99.4333ZM116.525 76.7436H137.241V58H116.525V76.7436ZM228 113.738C228 113.738 219.121 105.352 200.871 108.312C198.898 94.0075 183.607 85.6222 183.607 85.6222C183.607 85.6222 169.303 102.886 179.661 122.123C176.702 123.603 171.769 125.576 164.37 125.576H28.7257C26.2594 134.948 26.2594 197.097 94.3284 197.097C143.16 197.097 179.661 174.408 196.925 132.974C222.574 134.948 228 113.738 228 113.738Z"/></svg>
        </g>
         
        <g transform="translate(300, 300)">
          <svg xmlns="http://www.w3.org/2000/svg" width="256" height="256" fill="none" viewBox="0 0 256 256"><rect width="256" height="256" fill="#326CE5" rx="60"/><path fill="#fff" stroke="#fff" stroke-width=".11" d="M128.073 30C124.796 30.2304 122.313 33.0377 122.484 36.3143V37.9185C122.637 39.736 122.91 41.5364 123.269 43.3198C123.792 46.7349 123.98 50.1928 123.832 53.6446C123.507 54.7794 122.859 55.8034 121.972 56.5884L121.844 58.9947C118.388 59.2848 114.958 59.8138 111.579 60.5818C97.3628 63.7901 84.4184 71.1625 74.4264 81.7859L72.3785 80.3353C71.2522 80.6767 70.0405 80.5487 69.0081 79.994C66.2384 77.9441 63.675 75.6293 61.3541 73.0824C60.1883 71.6894 58.9432 70.3646 57.6252 69.1146L56.3624 68.1078C55.236 67.2033 53.8537 66.6828 52.4117 66.6145C51.5511 66.5689 50.6919 66.7275 49.9045 67.0775C49.117 67.4275 48.4235 67.9589 47.8807 68.6283C45.9523 71.3332 46.5837 75.0791 49.2801 77.0161L50.4576 77.9547C51.9734 78.9632 53.546 79.8834 55.1678 80.7108C58.1884 82.3918 61.0384 84.3629 63.6836 86.6838C64.3602 87.6487 64.7533 88.7837 64.8184 89.9604L66.6786 91.667C56.6354 106.736 52.514 124.988 55.091 142.915L52.7018 143.598C52.0789 144.588 51.2512 145.433 50.2614 146.055C46.928 146.946 43.5158 147.509 40.0731 147.736C38.2461 147.774 36.4227 147.916 34.6121 148.163L33.1018 148.504H32.9311C31.883 148.65 30.8958 149.083 30.0795 149.757C29.2632 150.43 28.6497 151.316 28.3074 152.318C27.9651 153.319 27.9074 154.396 28.1407 155.428C28.374 156.46 28.8892 157.407 29.6289 158.164C30.3755 158.916 31.3168 159.447 32.3475 159.695C33.3781 159.944 34.4577 159.901 35.4654 159.571H35.5763L37.1122 159.401C38.8444 158.889 40.551 158.257 42.2149 157.541C45.4147 156.261 48.734 155.279 52.1301 154.64C53.3076 154.708 54.4339 155.109 55.3896 155.791L57.9495 155.365C63.4958 172.576 75.1517 187.158 90.7157 196.348L89.6746 198.524C90.1525 199.522 90.3317 200.632 90.1866 201.732C88.7787 204.992 87.0551 208.115 85.0413 211.05C83.9366 212.506 82.9167 214.025 81.9865 215.598L81.2612 217.134C80.735 218.047 80.4713 219.088 80.4992 220.141C80.5271 221.194 80.8456 222.219 81.4194 223.103C81.9932 223.987 82.8001 224.695 83.751 225.149C84.7018 225.603 85.7596 225.785 86.8076 225.676C87.858 225.557 88.8551 225.15 89.6881 224.5C90.5211 223.849 91.1574 222.98 91.5263 221.989L92.2345 220.539C92.883 218.832 93.4291 217.091 93.8728 215.334C95.3831 211.605 96.2023 207.603 98.2672 205.128C98.9421 204.494 99.7926 204.078 100.708 203.934L101.988 201.604C118.859 208.089 137.528 208.135 154.431 201.732L155.565 203.908C156.726 204.079 157.767 204.719 158.467 205.657C160.071 208.712 161.368 211.912 162.358 215.214C162.809 216.982 163.362 218.723 164.013 220.428L164.721 221.878C165.094 222.865 165.732 223.73 166.565 224.376C167.398 225.023 168.394 225.426 169.443 225.542C170.491 225.658 171.551 225.481 172.505 225.032C173.46 224.583 174.271 223.878 174.85 222.996C175.423 222.109 175.739 221.081 175.763 220.025C175.787 218.969 175.518 217.927 174.986 217.015L174.244 215.479C173.314 213.911 172.294 212.398 171.189 210.948C169.227 208.115 167.537 205.094 166.069 201.929C165.932 201.35 165.913 200.749 166.013 200.163C166.113 199.577 166.329 199.016 166.65 198.515C166.286 197.771 165.969 197.005 165.702 196.22C181.232 186.962 192.837 172.328 198.324 155.092L200.747 155.518C201.617 154.725 202.761 154.307 203.93 154.341C207.317 154.989 210.636 156.047 213.845 157.242C215.509 158.01 217.215 158.658 218.947 159.205C219.357 159.316 219.954 159.409 220.415 159.52H220.526C221.533 159.846 222.611 159.885 223.639 159.634C224.667 159.383 225.605 158.851 226.349 158.099C227.093 157.346 227.614 156.401 227.853 155.37C228.091 154.339 228.039 153.262 227.702 152.259C227.357 151.257 226.741 150.37 225.921 149.698C225.101 149.026 224.111 148.595 223.06 148.453L221.405 148.061C219.594 147.814 217.771 147.671 215.944 147.634C212.497 147.412 209.084 146.849 205.756 145.953C204.732 145.381 203.878 144.528 203.298 143.496L200.994 142.813C203.451 124.894 199.242 106.697 189.168 91.6755L191.182 89.8154C191.096 88.6464 191.48 87.4859 192.24 86.5899C194.859 84.3373 197.701 82.3491 200.687 80.6511C202.309 79.8233 203.881 78.9031 205.397 77.8949L206.643 76.8881C207.56 76.3188 208.298 75.5014 208.77 74.5305C209.242 73.5596 209.429 72.4749 209.311 71.4019C209.192 70.3289 208.772 69.3114 208.099 68.4672C207.426 67.623 206.528 66.9866 205.508 66.6316C204.49 66.277 203.391 66.2178 202.34 66.4609C201.29 66.704 200.329 67.2394 199.569 68.0054L198.307 69.0122C196.989 70.2625 195.744 71.5873 194.578 72.98C192.325 75.5569 189.833 77.9035 187.128 80.0026C186.037 80.447 184.843 80.577 183.681 80.378L181.522 81.9139C169.064 68.8587 152.28 60.7524 134.293 59.1312C134.293 58.2779 134.182 56.998 134.165 56.5969C133.201 55.9314 132.527 54.916 132.305 53.764C132.186 50.3181 132.404 46.8688 132.953 43.4649C133.32 41.673 133.576 39.8811 133.738 38.0636V36.357C133.909 33.0804 131.434 30.2731 128.149 30.0427L128.073 30ZM120.956 74.0808L119.25 103.886H119.122C119.036 105.729 117.953 107.299 116.289 108.187C114.625 109.074 112.654 108.81 111.169 107.726L86.7223 90.4041C94.5034 82.7615 104.265 77.4447 114.906 75.0535C116.903 74.6269 118.917 74.3026 120.939 74.0808H120.956ZM135.189 74.0808C148.031 75.6764 159.985 81.4446 169.235 90.498L145.019 107.709C143.526 108.903 141.478 109.142 139.745 108.323C138.013 107.504 136.904 105.763 136.878 103.852L135.189 74.0808ZM77.8481 101.616L100.204 121.566V121.694C101.595 122.906 102.201 124.792 101.791 126.592C101.382 128.392 99.9994 129.817 98.2331 130.304V130.389L69.5456 138.64C68.1261 125.716 71.0502 112.686 77.8566 101.608L77.8481 101.616ZM178.135 101.616C184.927 112.666 187.931 125.628 186.685 138.538L157.955 130.261V130.15C156.163 129.664 154.797 128.239 154.396 126.438C153.995 124.638 154.593 122.769 155.984 121.541L178.169 101.685L178.135 101.616ZM123.49 123.119H132.638L138.227 130.218L136.196 139.093L127.979 143.043L119.744 139.093L117.807 130.218L123.49 123.119ZM152.792 147.335C153.176 147.293 153.646 147.293 153.944 147.335L183.528 152.327C179.261 164.614 170.839 175.11 159.849 182.132L148.415 154.452C148.1 153.709 147.969 152.902 148.032 152.098C148.094 151.294 148.349 150.517 148.775 149.832C149.201 149.147 149.785 148.574 150.478 148.162C151.171 147.75 151.953 147.51 152.758 147.463L152.792 147.335ZM103.105 147.463C104.778 147.489 106.322 148.351 107.235 149.75C108.148 151.15 108.293 152.907 107.636 154.443V154.554L96.2706 182.013C85.3912 175.042 77.1313 164.674 72.7369 152.515L102.064 147.54C102.389 147.506 102.721 147.506 103.054 147.54L103.105 147.463ZM127.885 159.409C128.817 159.38 129.739 159.61 130.548 160.074C131.357 160.538 132.022 161.218 132.467 162.037H132.578L147.033 188.122L141.256 189.829C130.624 192.261 119.523 191.689 109.189 188.174L123.695 162.089C124.574 160.553 126.195 159.614 127.962 159.571L127.885 159.409Z"/></svg>
        </g>
         
        <g transform="translate(600, 300)">
          <svg width="256" height="256" viewBox="0 0 256 256" fill="none" xmlns="http://www.w3.org/2000/svg">
<rect width="256" height="256" rx="60" fill="#242938"/>
<path fill-rule="evenodd" clip-rule="evenodd" d="M153.497 228V164.881L102.068 133.309V196.427L153.497 228ZM153.497 157.983L102.068 126.411V63.2666L153.497 94.8387V157.983Z" fill="#5C4EE5"/>
<path fill-rule="evenodd" clip-rule="evenodd" d="M210.613 126.385V63.2407L159.16 94.8128V157.957L210.613 126.385Z" fill="#4040B2"/>
<path fill-rule="evenodd" clip-rule="evenodd" d="M96.4291 122.717V59.5722L45 28V91.1442L96.4291 122.717Z" fill="#5C4EE5"/>
</svg>

        </g>
         
        <g transform="translate(900, 300)">
          <svg xmlns="http://www.w3.org/2000/svg" width="256" height="256" fill="none" viewBox="0 0 256 256"><rect width="256" height="256" fill="#242938" rx="60"/><path fill="#fff" d="M84.7447 111.961C84.7447 114.395 85.0079 116.368 85.4684 117.816C85.9947 119.263 86.6526 120.842 87.5737 122.553C87.9026 123.079 88.0342 123.605 88.0342 124.066C88.0342 124.724 87.6395 125.382 86.7842 126.039L82.6395 128.803C82.0474 129.197 81.4553 129.395 80.929 129.395C80.2711 129.395 79.6132 129.066 78.9553 128.474C78.0342 127.487 77.2447 126.434 76.5869 125.382C75.929 124.263 75.2711 123.013 74.5474 121.5C69.4158 127.553 62.9684 130.579 55.2053 130.579C49.679 130.579 45.2711 129 42.0474 125.842C38.8237 122.684 37.179 118.474 37.179 113.211C37.179 107.618 39.1526 103.079 43.1658 99.6579C47.179 96.2368 52.5079 94.5263 59.2842 94.5263C61.5211 94.5263 63.8237 94.7237 66.2579 95.0526C68.6921 95.3816 71.1921 95.9079 73.8237 96.5V91.6974C73.8237 86.6974 72.7711 83.2105 70.7316 81.1711C68.6263 79.1316 65.0737 78.1447 60.0079 78.1447C57.7053 78.1447 55.3368 78.4079 52.9026 79C50.4684 79.5921 48.1 80.3158 45.7974 81.2368C44.7447 81.6974 43.9553 81.9605 43.4947 82.0921C43.0342 82.2237 42.7053 82.2895 42.4421 82.2895C41.5211 82.2895 41.0605 81.6316 41.0605 80.25V77.0263C41.0605 75.9737 41.1921 75.1842 41.5211 74.7237C41.85 74.2632 42.4421 73.8026 43.3632 73.3421C45.6658 72.1579 48.429 71.1711 51.6526 70.3816C54.8763 69.5263 58.2974 69.1316 61.9158 69.1316C69.7447 69.1316 75.4684 70.9079 79.1526 74.4605C82.7711 78.0132 84.6132 83.4079 84.6132 90.6447V111.961H84.7447ZM58.0342 121.961C60.2053 121.961 62.4421 121.566 64.8105 120.776C67.179 119.987 69.2842 118.539 71.0605 116.566C72.1132 115.316 72.9026 113.934 73.2974 112.355C73.6921 110.776 73.9553 108.868 73.9553 106.632V103.868C72.0474 103.408 70.0079 103.013 67.9026 102.75C65.7974 102.487 63.7579 102.355 61.7184 102.355C57.3105 102.355 54.0868 103.211 51.9158 104.987C49.7447 106.763 48.6921 109.263 48.6921 112.553C48.6921 115.645 49.4816 117.947 51.1263 119.526C52.7053 121.171 55.0079 121.961 58.0342 121.961ZM110.863 129.066C109.679 129.066 108.889 128.868 108.363 128.408C107.837 128.013 107.376 127.092 106.982 125.842L91.5211 74.9868C91.1263 73.6711 90.929 72.8158 90.929 72.3553C90.929 71.3026 91.4553 70.7105 92.5079 70.7105H98.9553C100.205 70.7105 101.061 70.9079 101.521 71.3684C102.047 71.7632 102.442 72.6842 102.837 73.9342L113.889 117.487L124.153 73.9342C124.482 72.6184 124.876 71.7632 125.403 71.3684C125.929 70.9737 126.85 70.7105 128.034 70.7105H133.297C134.547 70.7105 135.403 70.9079 135.929 71.3684C136.455 71.7632 136.916 72.6842 137.179 73.9342L147.574 118.013L158.955 73.9342C159.35 72.6184 159.811 71.7632 160.271 71.3684C160.797 70.9737 161.653 70.7105 162.837 70.7105H168.955C170.008 70.7105 170.6 71.2368 170.6 72.3553C170.6 72.6842 170.534 73.0132 170.468 73.4079C170.403 73.8026 170.271 74.3289 170.008 75.0526L154.153 125.908C153.758 127.224 153.297 128.079 152.771 128.474C152.245 128.868 151.389 129.132 150.271 129.132H144.613C143.363 129.132 142.508 128.934 141.982 128.474C141.455 128.013 140.995 127.158 140.732 125.842L130.534 83.4079L120.403 125.776C120.074 127.092 119.679 127.947 119.153 128.408C118.626 128.868 117.705 129.066 116.521 129.066H110.863ZM195.403 130.842C191.982 130.842 188.561 130.447 185.271 129.658C181.982 128.868 179.416 128.013 177.705 127.026C176.653 126.434 175.929 125.776 175.666 125.184C175.403 124.592 175.271 123.934 175.271 123.342V119.987C175.271 118.605 175.797 117.947 176.784 117.947C177.179 117.947 177.574 118.013 177.968 118.145C178.363 118.276 178.955 118.539 179.613 118.803C181.85 119.789 184.284 120.579 186.85 121.105C189.482 121.632 192.047 121.895 194.679 121.895C198.824 121.895 202.047 121.171 204.284 119.724C206.521 118.276 207.705 116.171 207.705 113.474C207.705 111.632 207.113 110.118 205.929 108.868C204.745 107.618 202.508 106.5 199.284 105.447L189.745 102.487C184.942 100.974 181.389 98.7368 179.218 95.7763C177.047 92.8816 175.929 89.6579 175.929 86.2368C175.929 83.4737 176.521 81.0395 177.705 78.9342C178.889 76.8289 180.468 74.9868 182.442 73.5395C184.416 72.0263 186.653 70.9079 189.284 70.1184C191.916 69.3289 194.679 69 197.574 69C199.021 69 200.534 69.0658 201.982 69.2632C203.495 69.4605 204.876 69.7237 206.258 69.9868C207.574 70.3158 208.824 70.6447 210.008 71.0395C211.192 71.4342 212.113 71.8289 212.771 72.2237C213.692 72.75 214.35 73.2763 214.745 73.8684C215.139 74.3947 215.337 75.1184 215.337 76.0395V79.1316C215.337 80.5132 214.811 81.2368 213.824 81.2368C213.297 81.2368 212.442 80.9737 211.324 80.4474C207.574 78.7368 203.363 77.8816 198.692 77.8816C194.942 77.8816 191.982 78.4737 189.942 79.7237C187.903 80.9737 186.85 82.8816 186.85 85.5789C186.85 87.4211 187.508 89 188.824 90.25C190.139 91.5 192.574 92.75 196.061 93.8684L205.403 96.8289C210.139 98.3421 213.561 100.447 215.6 103.145C217.639 105.842 218.626 108.934 218.626 112.355C218.626 115.184 218.034 117.75 216.916 119.987C215.732 122.224 214.153 124.197 212.113 125.776C210.074 127.421 207.639 128.605 204.811 129.461C201.85 130.382 198.758 130.842 195.403 130.842Z"/><path fill="#F90" fill-rule="evenodd" d="M207.837 162.816C186.192 178.803 154.745 187.29 127.705 187.29C89.8105 187.29 55.6658 173.276 29.8763 149.987C27.8369 148.145 29.679 145.645 32.1132 147.092C60.0079 163.276 94.4158 173.079 130.008 173.079C154.021 173.079 180.403 168.079 204.679 157.816C208.297 156.171 211.389 160.184 207.837 162.816Z" clip-rule="evenodd"/><path fill="#F90" fill-rule="evenodd" d="M216.85 152.553C214.087 149 198.561 150.842 191.521 151.697C189.416 151.961 189.087 150.118 190.995 148.737C203.363 140.053 223.692 142.553 226.061 145.447C228.429 148.408 225.403 168.737 213.824 178.474C212.047 179.987 210.337 179.197 211.126 177.224C213.758 170.711 219.613 156.039 216.85 152.553Z" clip-rule="evenodd"/></svg>
        </g>
         
        <g transform="translate(1200, 300)">
          <svg xmlns="http://www.w3.org/2000/svg" width="256" height="256" fill="none" viewBox="0 0 256 256"><rect width="256" height="256" fill="#242938" rx="60"/><path fill="#ECEFF1" d="M85.9493 199.926L110.48 213.546H147.576L182.278 187.491L197.834 146.632L161.935 103.405L151.764 79.1268L102.104 80.9032L102.702 94.5228L93.1291 112.287L78.1713 141.303L75.1797 165.581L85.9493 199.926Z"/><path fill="#263238" d="M187.064 114.656C177.491 101.036 169.713 92.7463 165.525 75.5738C161.337 58.4013 166.722 63.1386 163.132 48.3347C161.337 40.6367 158.345 35.3073 155.354 31.1622C151.764 27.0171 147.576 24.6485 145.182 24.0563C139.798 21.0956 127.233 16.3583 111.677 24.6485C95.5223 32.9387 97.3172 50.7033 100.309 86.8248C100.309 89.1934 99.7105 92.1542 98.5139 94.5228C96.1206 99.8522 91.9324 104.589 88.3425 108.735C84.1543 114.656 79.9661 120.578 76.9746 127.091C69.7948 140.711 63.2134 157.883 65.0083 164.397C67.9999 163.805 105.694 220.652 105.694 221.836C108.087 221.244 118.258 221.244 127.233 221.244C139.798 220.652 146.977 220.06 157.149 222.428C157.149 220.652 156.55 218.875 156.55 217.099C156.55 213.546 157.149 210.585 157.747 206.44C158.345 203.479 158.944 200.519 159.542 196.966C153.559 202.295 142.789 208.217 132.618 209.993C123.643 211.769 108.685 208.809 101.505 199.926C102.104 199.926 103.3 199.926 103.899 199.334C105.694 198.742 107.489 198.15 108.087 196.966C109.882 194.005 108.685 191.044 107.489 189.268C106.292 187.491 97.3173 180.977 93.1291 177.425C88.9409 173.872 86.5476 172.095 84.1544 169.727C84.1544 169.727 80.5645 166.174 79.3678 164.989C78.1712 163.805 77.5729 162.621 76.9746 162.028C75.778 159.068 75.1796 155.515 75.778 150.778C76.3763 144.264 78.7695 138.934 81.7611 133.013C82.9577 130.644 85.9493 125.907 85.9493 125.907C85.9493 125.907 75.778 150.778 81.1628 158.476C81.1628 158.476 81.7611 150.778 84.1544 143.08C85.9493 137.75 88.9409 130.052 92.5307 125.907C96.1206 121.762 105.095 106.366 105.694 96.8914C105.694 92.7463 106.292 88.6012 106.292 85.6405C103.899 83.2718 145.781 77.3503 148.174 83.864C148.772 86.2326 157.149 107.55 161.935 118.801C164.328 124.131 167.32 128.868 169.115 134.789C170.91 141.303 172.106 150.185 172.106 159.068C172.106 160.844 172.106 163.805 171.508 166.766C172.705 166.766 196.039 141.895 168.517 121.17C168.517 121.17 185.269 128.868 185.868 144.264C186.466 156.699 181.081 166.766 179.885 168.542C180.483 168.542 192.449 173.872 193.047 173.872C195.441 173.872 200.227 172.095 200.227 172.095C200.826 170.319 202.62 165.581 202.62 163.805C206.809 150.185 196.637 128.276 187.064 114.656V114.656Z"/><path fill="#ECEFF1" d="M111.078 75.5738C115.374 75.5738 118.856 70.2714 118.856 63.7307C118.856 57.1899 115.374 51.8876 111.078 51.8876C106.783 51.8876 103.3 57.1899 103.3 63.7307C103.3 70.2714 106.783 75.5738 111.078 75.5738Z"/><path fill="#ECEFF1" d="M138.002 76.7581C143.62 76.7581 148.174 70.6604 148.174 63.1386C148.174 55.6167 143.62 49.519 138.002 49.519C132.385 49.519 127.831 55.6167 127.831 63.1386C127.831 70.6604 132.385 76.7581 138.002 76.7581Z"/><path fill="#212121" d="M115.424 64.5411C114.927 60.6476 112.663 57.7241 110.368 58.0111C108.074 58.2982 106.616 61.6872 107.114 65.5807C107.611 69.4741 109.874 72.3977 112.169 72.1106C114.464 71.8235 115.921 68.4345 115.424 64.5411Z"/><path fill="#212121" d="M137.404 73.2052C140.709 73.2052 143.387 69.7587 143.387 65.5072C143.387 61.2557 140.709 57.8091 137.404 57.8091C134.1 57.8091 131.421 61.2557 131.421 65.5072C131.421 69.7587 134.1 73.2052 137.404 73.2052Z"/><path fill="#FFC107" d="M216.98 195.781C214.587 194.597 210.398 192.82 206.808 187.491C205.014 184.53 205.612 176.24 202.62 172.687C200.825 170.319 198.432 171.503 197.834 171.503C192.449 172.687 179.884 180.977 171.508 171.503C170.311 170.319 168.516 168.542 165.525 168.542C162.533 168.542 161.337 169.726 160.14 172.095C158.943 174.464 158.943 176.24 158.943 182.162C158.943 186.899 158.943 192.228 158.345 196.373C157.148 206.44 155.354 212.362 155.354 218.283C155.354 224.797 157.148 228.942 159.542 230.718C161.337 232.495 164.328 233.679 170.91 233.679C177.491 233.679 181.679 231.311 185.868 227.165C188.859 224.205 191.252 223.02 199.629 217.099C206.21 212.954 216.382 207.624 218.176 205.848C219.373 204.664 221.168 204.071 221.168 200.518C221.168 197.558 218.775 196.373 216.98 195.781V195.781Z"/><path fill="#FFC107" d="M96.7189 197.558C90.7357 188.083 90.1374 186.307 85.9492 180.385C82.3593 174.464 74.5813 163.213 69.7948 163.213C66.2049 163.213 64.4099 164.989 62.0167 167.358C59.6234 169.726 57.2302 175.056 53.042 178.017C49.4521 180.977 39.2808 180.385 36.8875 183.938C34.4942 187.491 39.2808 192.821 39.2808 201.703C39.2808 205.256 36.2892 207.624 35.6909 209.993C35.0926 212.954 34.4942 214.73 35.6909 217.099C38.0841 220.652 41.0757 221.836 61.4184 225.981C72.188 228.35 82.3593 234.271 88.9408 234.864C95.5222 235.456 106.89 234.864 106.89 218.875C107.489 209.401 102.104 207.032 96.7189 197.558Z"/><path fill="#FFC107" d="M108.087 90.3777C104.497 88.0091 101.505 85.6404 101.505 82.0875C101.505 78.5346 103.899 77.3503 107.489 74.3895C108.087 73.7973 114.668 67.8758 121.25 67.8758C127.831 67.8758 135.609 72.0209 138.601 73.2052C143.986 74.3895 149.37 75.5738 148.772 79.7189C148.174 85.6404 147.576 86.8248 141.592 89.7855C137.404 90.9698 129.626 97.4835 124.241 97.4835C121.848 97.4835 118.258 97.4835 115.865 96.8914C114.07 96.2992 111.078 93.3385 108.087 90.3777V90.3777Z"/><path fill="#634703" d="M106.89 85.6405C108.087 86.8248 109.882 88.0091 111.677 88.6012C112.873 89.1934 114.668 89.7856 114.668 89.7856C117.062 89.7856 118.857 89.7856 120.053 89.7856C123.045 89.7856 127.233 88.6013 131.421 86.2326C135.609 84.4562 136.208 83.2718 139.199 82.0875C142.191 80.3111 145.182 78.5346 143.986 77.9425C142.789 77.3503 141.592 77.9425 137.404 80.3111C133.814 82.6797 130.823 83.864 127.233 85.6405C125.438 86.2326 123.045 87.4169 121.25 87.4169C119.455 87.4169 117.66 87.4169 115.865 87.4169C114.07 87.4169 112.873 86.8248 111.078 86.2326C109.882 85.6405 109.283 85.0483 108.685 85.0483C107.489 84.4562 105.095 82.0875 103.899 81.4954C103.899 81.4954 102.702 81.4954 103.3 82.0875C105.095 83.864 105.694 84.4562 106.89 85.6405Z"/><path fill="#634703" d="M124.84 72.613C125.438 73.7973 126.635 73.7973 127.233 74.3895C127.831 74.9816 128.429 74.9816 128.429 74.9816C129.028 74.3895 128.429 73.2052 127.831 73.2052C127.831 72.0209 124.84 72.0209 124.84 72.613V72.613Z"/><path fill="#634703" d="M115.267 73.7973C115.267 74.3895 116.463 74.9816 116.463 74.3895C117.062 73.7973 117.66 73.2052 118.258 73.2052C119.455 72.613 118.856 72.0209 117.062 72.0209C115.865 72.613 115.865 73.2052 115.267 73.7973V73.7973Z"/><path fill="#455A64" d="M173.303 178.609C173.303 179.201 173.303 179.793 173.303 180.385C174.5 182.754 177.491 183.346 179.884 183.346C183.474 183.346 187.064 180.977 188.859 178.609C188.859 178.017 189.457 177.424 190.056 176.832C191.252 175.056 191.851 173.872 192.449 173.279C192.449 173.279 191.851 172.687 191.851 172.095C191.252 170.911 189.457 169.726 187.064 169.134C185.269 168.542 182.278 167.95 181.081 167.95C175.696 167.358 172.705 169.134 170.91 170.911C170.91 170.911 171.508 170.911 171.508 171.503C172.705 172.687 173.303 173.872 173.303 175.648C173.901 176.832 173.303 177.424 173.303 178.609V178.609Z"/></svg>
        </g>
         
        <g transform="translate(1500, 300)">
          <svg width="256" height="256" viewBox="0 0 256 256" fill="none" xmlns="http://www.w3.org/2000/svg">
<rect width="256" height="256" rx="60" fill="#242938"/>
<path fill-rule="evenodd" clip-rule="evenodd" d="M46 71.0063L88.5954 28V227.957L46 185.45V71.0063Z" fill="url(#paint0_linear_306_17)"/>
<path fill-rule="evenodd" clip-rule="evenodd" d="M210.584 71.4104L167.406 28.0225L168.282 227.958L210.878 185.45L210.584 71.4104Z" fill="url(#paint1_linear_306_17)"/>
<path fill-rule="evenodd" clip-rule="evenodd" d="M88.5672 28.0332L199.309 197.012L168.32 228L57.5195 59.3947L88.5672 28.0332Z" fill="url(#paint2_linear_306_17)"/>
<path fill-rule="evenodd" clip-rule="evenodd" d="M88.6046 106.416L88.5462 113.072L54.3527 62.5927L57.5193 59.3677L88.6046 106.416Z" fill="black" fill-opacity="0.13"/>
<defs>
<linearGradient id="paint0_linear_306_17" x1="67.2972" y1="28" x2="67.2972" y2="227.958" gradientUnits="userSpaceOnUse">
<stop stop-color="#16B0ED" stop-opacity="0.8"/>
<stop offset="1" stop-color="#0F59B2" stop-opacity="0.837"/>
</linearGradient>
<linearGradient id="paint1_linear_306_17" x1="189.14" y1="28.0225" x2="189.14" y2="227.957" gradientUnits="userSpaceOnUse">
<stop stop-color="#7DB643"/>
<stop offset="1" stop-color="#367533"/>
</linearGradient>
<linearGradient id="paint2_linear_306_17" x1="128.414" y1="28.0332" x2="128.414" y2="228.01" gradientUnits="userSpaceOnUse">
<stop stop-color="#88C649" stop-opacity="0.8"/>
<stop offset="1" stop-color="#439240" stop-opacity="0.84"/>
</linearGradient>
</defs>
</svg>

        </g>
        
  </svg>
  